<svg width="24" height="24" viewBox="0 0 24 24" fill="none" xmlns="http://www.w3.org/2000/svg">
<path d="M12 0C12.3368 0 12.6703 0.0138134 13 0.0410156V23.958C12.6702 23.9852 12.3368 24 12 24C5.37258 24 0 18.6274 0 12C0 5.37258 5.37258 0 12 0ZM13.7998 0.134766C14.1727 0.190848 14.5396 0.264931 14.9004 0.354492V23.6445C14.5396 23.7341 14.1727 23.8082 13.7998 23.8643V0.134766ZM15.7002 0.583008C16.0753 0.704493 16.4419 0.844566 16.7998 1.00098V22.998C16.4419 23.1545 16.0753 23.2945 15.7002 23.416V0.583008ZM17.5996 1.38672C17.9787 1.58713 18.3466 1.80549 18.7002 2.04395V21.9551C18.3465 22.1936 17.9787 22.4119 17.5996 22.6123V1.38672ZM19.5 2.63574C19.8868 2.94593 20.2542 3.27883 20.5996 3.63379V20.3652C20.2542 20.7202 19.8868 21.0531 19.5 21.3633V2.63574ZM21.3994 4.54395C21.8093 5.05995 22.1784 5.60948 22.5 6.18945V17.8096C22.1784 18.3896 21.8093 18.939 21.3994 19.4551V4.54395ZM23.2998 7.95703C23.7519 9.22046 24 10.5811 24 12C24 13.4185 23.7517 14.7788 23.2998 16.042V7.95703Z" fill="#F76B15"/>
</svg>
