<svg width="75" height="15" viewBox="0 0 75 15" fill="none" xmlns="http://www.w3.org/2000/svg">
<g clip-path="url(#clip0_9073_3994)">
<path d="M49.8574 0.00634766H62.9211V2.39779H57.7389V14.9789H55.1476V2.39779H49.8574V0.00634766Z" fill="#EEEEEE"/>
<path d="M28.3732 0.00634766V2.39779H17.9018V6.2449H26.3229V8.63634H17.9018V12.5874H28.3732V14.9789H15.3107V2.39779H15.3096V0.00634766H28.3732Z" fill="#EEEEEE"/>
<path d="M34.8959 0.0126953H31.5049L43.6507 14.9852H47.0516L40.9779 7.50411L47.0419 0.0241184L43.6507 0.0293159L39.2801 5.41289L34.8959 0.0126953Z" fill="#EEEEEE"/>
<path d="M38.3755 10.7074L36.6774 8.61328L31.4951 14.9964H34.8958L38.3755 10.7074Z" fill="#EEEEEE"/>
<path fill-rule="evenodd" clip-rule="evenodd" d="M15.4011 14.9788L3.23892 0H0V14.9725H2.59114V3.20037L12.1459 14.9788H15.4011Z" fill="#EEEEEE"/>
<path d="M63.504 14.8872C63.3142 14.8872 63.1528 14.822 63.0177 14.6916C62.8825 14.5612 62.8157 14.4033 62.8174 14.2163C62.8157 14.0344 62.8825 13.8783 63.0177 13.7479C63.1528 13.6175 63.3142 13.5522 63.504 13.5522C63.6866 13.5522 63.8463 13.6175 63.9814 13.7479C64.1185 13.8783 64.1868 14.0344 64.1887 14.2163C64.1868 14.3398 64.1552 14.4531 64.092 14.5543C64.0271 14.6573 63.9447 14.7379 63.841 14.7963C63.7391 14.8563 63.6268 14.8872 63.504 14.8872Z" fill="#EEEEEE"/>
<path d="M67.9268 8.57959H69.0751V12.967C69.0734 13.3703 68.9854 13.7152 68.8135 14.0051C68.6397 14.2951 68.3991 14.5164 68.0902 14.6726C67.7829 14.827 67.423 14.906 67.0139 14.906C66.6399 14.906 66.3046 14.839 66.0062 14.7086C65.7077 14.5782 65.4707 14.3826 65.2969 14.1252C65.1212 13.8679 65.0352 13.547 65.0352 13.1627H66.1853C66.187 13.3308 66.2256 13.4766 66.2993 13.5985C66.373 13.7203 66.4748 13.8129 66.6048 13.8781C66.7364 13.9434 66.8875 13.976 67.0577 13.976C67.2421 13.976 67.4001 13.9382 67.5282 13.861C67.6564 13.7855 67.7548 13.6722 67.8233 13.5213C67.8899 13.372 67.9251 13.1867 67.9268 12.967V8.57959Z" fill="#EEEEEE"/>
<path d="M73.7988 10.2955C73.7708 10.0296 73.6478 9.82196 73.4337 9.6744C73.2176 9.52512 72.9386 9.45134 72.5961 9.45134C72.3557 9.45134 72.1486 9.48738 71.9765 9.55773C71.8044 9.62979 71.671 9.72587 71.5796 9.8477C71.4884 9.96952 71.4428 10.1085 71.4391 10.2647C71.4391 10.3951 71.4707 10.5083 71.5322 10.6027C71.5937 10.6988 71.6761 10.7794 71.7833 10.8446C71.8886 10.9115 72.0062 10.9664 72.1345 11.011C72.2643 11.0557 72.3943 11.0934 72.5242 11.1243L73.1228 11.2701C73.3634 11.3251 73.597 11.3989 73.8199 11.4932C74.0428 11.5859 74.2448 11.7043 74.422 11.8467C74.5994 11.9891 74.7399 12.1607 74.8435 12.3614C74.947 12.5622 74.9997 12.7973 74.9997 13.0684C74.9997 13.4338 74.9049 13.7547 74.7134 14.0327C74.5221 14.3089 74.2465 14.5251 73.8848 14.6813C73.5249 14.8357 73.0895 14.9146 72.5769 14.9146C72.0818 14.9146 71.6499 14.8391 71.2865 14.6881C70.9214 14.5389 70.6368 14.3192 70.4314 14.0309C70.226 13.7427 70.1154 13.3909 70.0996 12.9774H71.2374C71.2532 13.1936 71.3234 13.3738 71.4428 13.5196C71.5638 13.6638 71.7218 13.7701 71.915 13.8422C72.11 13.9126 72.3275 13.9486 72.5681 13.9486C72.8192 13.9486 73.0404 13.9108 73.2317 13.8371C73.4213 13.7633 73.5705 13.6603 73.6777 13.5265C73.7866 13.3944 73.841 13.2382 73.8428 13.0598C73.841 12.8968 73.7917 12.7612 73.6969 12.6548C73.6004 12.5485 73.467 12.4592 73.2966 12.3872C73.1247 12.3151 72.9245 12.2499 72.6962 12.1933L71.9695 12.0114C71.4445 11.8793 71.0284 11.6785 70.7245 11.4091C70.4192 11.1397 70.2681 10.7829 70.2681 10.335C70.2681 9.96783 70.3699 9.64525 70.5755 9.36899C70.779 9.09274 71.0582 8.87825 71.4112 8.72554C71.7658 8.57112 72.1661 8.49561 72.6119 8.49561C73.065 8.49561 73.4617 8.57112 73.8041 8.72554C74.1464 8.87825 74.4152 9.09103 74.6099 9.36212C74.8048 9.63322 74.9067 9.94379 74.912 10.2955H73.7988Z" fill="#EEEEEE"/>
</g>
<defs>
<clipPath id="clip0_9073_3994">
<rect width="75" height="14.9148" fill="white"/>
</clipPath>
</defs>
</svg>
