<svg width="63" height="20" viewBox="0 0 63 20" fill="none" xmlns="http://www.w3.org/2000/svg">
<g clip-path="url(#clip0_9073_4021)">
<path d="M36.3927 16.6717H38.5046C38.351 15.8646 38.2725 15.0968 38.2725 14.1715V10.3128C38.2725 7.71406 36.7964 6.43439 34.148 6.43439C31.749 6.43439 30.1177 7.69437 29.9066 9.84025H32.2672C32.344 8.915 32.9965 8.30467 34.0712 8.30467C35.1844 8.30467 35.9136 8.89525 35.9136 10.1159V10.5884L32.9965 10.9231C31.0197 11.1593 29.4844 11.9862 29.4844 13.9943C29.4844 15.8055 30.8661 16.8882 32.7662 16.8882C34.3207 16.8882 35.6319 16.2386 36.1754 15.0968C36.1993 15.7808 36.3927 16.6717 36.3927 16.6717ZM33.4379 15.1362C32.4591 15.1362 31.9217 14.6439 31.9217 13.8565C31.9217 12.8131 32.7086 12.5768 33.745 12.439L35.9136 12.1831V12.7933C35.9136 14.3683 34.7046 15.1362 33.4379 15.1362ZM46.6356 16.6717H49.0538V2.5H46.5972V8.30467C46.1367 7.30062 45.0236 6.43439 43.5074 6.43439C40.872 6.43439 39.0426 8.58025 39.0426 11.6712C39.0426 14.7817 40.872 16.908 43.5074 16.908C44.9852 16.908 46.1558 16.0811 46.6356 15.0771V16.6717ZM46.6549 11.8483C46.6549 13.7974 45.7528 15.0574 44.1983 15.0574C42.6054 15.0574 41.6013 13.7383 41.6013 11.6712C41.6013 9.62375 42.6054 8.28498 44.1983 8.28498C45.7528 8.28498 46.6549 9.545 46.6549 11.494V11.8483ZM50.4884 4.97753H53.0985V2.51663H50.4884V4.97753ZM50.5652 16.6717H53.0218V6.67063H50.5652V16.6717ZM56.0898 16.6717L58.5271 13.2462L60.9453 16.6717H63.7665L59.9857 11.4349L63.4594 6.67063H60.8301L58.6614 9.7615L56.512 6.67063H53.6907L57.2029 11.5531L53.4604 16.6717H56.0898Z" fill="#EEEEEE"/>
<path fill-rule="evenodd" clip-rule="evenodd" d="M20.6522 16.6668V11.6808H23.873L26.9009 16.6668H29.5944L26.2693 11.3073C27.7739 10.8218 29.0928 9.58933 29.0928 7.5165C29.0928 4.79008 27.1894 3.3335 24.0044 3.3335H18.2373V16.6668H20.6522ZM20.6522 5.29428V9.73875H23.8916C25.7306 9.73875 26.6593 8.97308 26.6593 7.5165C26.6593 6.05992 25.6477 5.29428 23.7258 5.29428H20.6522Z" fill="#EEEEEE"/>
<path d="M5.80263 19.1665C2.59793 19.1665 0 16.3683 0 12.9165C0 9.46467 2.59793 6.6665 5.80263 6.6665V19.1665Z" fill="#EEEEEE"/>
<path d="M5.80263 0H0V5.83333H5.80263V0Z" fill="#EEEEEE"/>
<path d="M9.53315 5.83333C11.1355 5.83333 12.4345 4.5275 12.4345 2.91667C12.4345 1.30583 11.1355 0 9.53315 0C7.93083 0 6.63184 1.30583 6.63184 2.91667C6.63184 4.5275 7.93083 5.83333 9.53315 5.83333Z" fill="#EEEEEE"/>
</g>
<defs>
<clipPath id="clip0_9073_4021">
<rect width="63" height="20" fill="white"/>
</clipPath>
</defs>
</svg>
