<svg width="110" height="28" viewBox="0 0 110 28" fill="none" xmlns="http://www.w3.org/2000/svg">
<g clip-path="url(#clip0_9073_4003)">
<path d="M17.671 12.9835C18.2324 12.4222 19.1425 12.4222 19.7039 12.9835C20.2653 13.5449 20.2653 14.455 19.7039 15.0164L12.5164 22.2039C11.955 22.7653 11.0449 22.7653 10.4835 22.2039C9.92216 21.6425 9.92216 20.7324 10.4835 20.171L17.671 12.9835Z" fill="#EEEEEE"/>
<path d="M16.2335 5.07728C16.7949 4.51591 17.705 4.51591 18.2664 5.07728C18.8278 5.63866 18.8278 6.5488 18.2664 7.11017L4.61017 20.7664C4.0488 21.3278 3.13866 21.3278 2.57728 20.7664C2.01591 20.205 2.01591 19.2949 2.57728 18.7335L16.2335 5.07728Z" fill="#EEEEEE"/>
</g>
<path d="M107.102 19.7599V10.1479H109.406V19.7599H107.102ZM107.066 8.86987V6.81787H109.46V8.86987H107.066Z" fill="#EEEEEE"/>
<path d="M100.456 19.9759C99.4841 19.9759 98.7101 19.6579 98.1341 19.0219C97.5701 18.374 97.2881 17.4799 97.2881 16.3399V10.1479H99.5921V15.7639C99.5921 16.5679 99.7241 17.162 99.9881 17.5459C100.264 17.9179 100.678 18.1039 101.23 18.1039C101.854 18.1039 102.334 17.9 102.67 17.492C103.018 17.0719 103.192 16.4659 103.192 15.6739V10.1479H105.496V19.7599H103.39L103.336 17.1139L103.624 17.2039C103.48 18.116 103.138 18.8059 102.598 19.2739C102.058 19.742 101.344 19.9759 100.456 19.9759Z" fill="#EEEEEE"/>
<path d="M89.2168 21.7398L94.5448 6.25977H96.8128L91.4848 21.7398H89.2168Z" fill="#EEEEEE"/>
<path d="M79.8037 19.7596V10.1476H81.8917L81.9817 12.8476L81.7117 12.7396C81.8077 12.0676 82.0057 11.5276 82.3057 11.1196C82.6057 10.7116 82.9717 10.4116 83.4037 10.2196C83.8357 10.0276 84.3097 9.93164 84.8257 9.93164C85.5337 9.93164 86.1277 10.0876 86.6077 10.3996C87.0997 10.7116 87.4717 11.1436 87.7237 11.6956C87.9757 12.2356 88.1017 12.8656 88.1017 13.5856V19.7596H85.7977V14.3236C85.7977 13.7836 85.7437 13.3276 85.6357 12.9556C85.5277 12.5836 85.3477 12.3016 85.0957 12.1096C84.8557 11.9056 84.5317 11.8036 84.1237 11.8036C83.5117 11.8036 83.0197 12.0196 82.6477 12.4516C82.2877 12.8836 82.1077 13.5076 82.1077 14.3236V19.7596H79.8037Z" fill="#EEEEEE"/>
<path d="M74.4645 19.9756C73.5045 19.9756 72.6705 19.7716 71.9625 19.3636C71.2545 18.9436 70.7025 18.3556 70.3065 17.5996C69.9225 16.8436 69.7305 15.9616 69.7305 14.9536C69.7305 13.9456 69.9225 13.0696 70.3065 12.3256C70.7025 11.5696 71.2545 10.9816 71.9625 10.5616C72.6705 10.1416 73.5045 9.93164 74.4645 9.93164C75.2805 9.93164 76.0065 10.0756 76.6425 10.3636C77.2785 10.6516 77.7945 11.0656 78.1905 11.6056C78.5985 12.1336 78.8505 12.7816 78.9465 13.5496L76.5705 13.6756C76.4745 13.0636 76.2345 12.6016 75.8505 12.2896C75.4785 11.9656 75.0165 11.8036 74.4645 11.8036C73.7205 11.8036 73.1445 12.0856 72.7365 12.6496C72.3285 13.2016 72.1245 13.9696 72.1245 14.9536C72.1245 15.9496 72.3285 16.7236 72.7365 17.2756C73.1445 17.8276 73.7205 18.1036 74.4645 18.1036C75.0285 18.1036 75.4965 17.9416 75.8685 17.6176C76.2525 17.2936 76.4865 16.7896 76.5705 16.1056L78.9465 16.2136C78.8505 16.9816 78.6045 17.6476 78.2085 18.2116C77.8125 18.7756 77.2965 19.2136 76.6605 19.5256C76.0245 19.8256 75.2925 19.9756 74.4645 19.9756Z" fill="#EEEEEE"/>
<path d="M63.4546 19.976C62.6386 19.976 61.9306 19.772 61.3306 19.364C60.7426 18.956 60.2866 18.374 59.9626 17.618C59.6386 16.862 59.4766 15.974 59.4766 14.954C59.4766 13.934 59.6386 13.046 59.9626 12.29C60.2866 11.534 60.7486 10.952 61.3486 10.544C61.9486 10.136 62.6506 9.93198 63.4546 9.93198C64.1266 9.93198 64.7146 10.07 65.2186 10.346C65.7346 10.622 66.1246 11.012 66.3886 11.516V6.97998H68.6926V19.76H66.4966L66.4426 18.338C66.1786 18.854 65.7826 19.256 65.2546 19.544C64.7266 19.832 64.1266 19.976 63.4546 19.976ZM64.1566 18.104C64.6366 18.104 65.0386 17.984 65.3626 17.744C65.6986 17.504 65.9506 17.15 66.1186 16.682C66.2986 16.202 66.3886 15.626 66.3886 14.954C66.3886 14.27 66.2986 13.694 66.1186 13.226C65.9506 12.758 65.6986 12.404 65.3626 12.164C65.0386 11.924 64.6366 11.804 64.1566 11.804C63.4606 11.804 62.9026 12.086 62.4826 12.65C62.0746 13.202 61.8706 13.97 61.8706 14.954C61.8706 15.914 62.0746 16.682 62.4826 17.258C62.9026 17.822 63.4606 18.104 64.1566 18.104Z" fill="#EEEEEE"/>
<path d="M53.2738 19.9756C52.2658 19.9756 51.4558 19.7476 50.8438 19.2916C50.2318 18.8236 49.9258 18.1756 49.9258 17.3476C49.9258 16.5196 50.1838 15.8716 50.6998 15.4036C51.2158 14.9356 52.0018 14.5996 53.0578 14.3956L56.2438 13.7656C56.2438 13.0816 56.0878 12.5716 55.7758 12.2356C55.4638 11.8876 55.0018 11.7136 54.3898 11.7136C53.8378 11.7136 53.3998 11.8456 53.0758 12.1096C52.7638 12.3616 52.5478 12.7276 52.4278 13.2076L50.0878 13.0996C50.2798 12.0796 50.7478 11.2996 51.4918 10.7596C52.2358 10.2076 53.2018 9.93164 54.3898 9.93164C55.7578 9.93164 56.7898 10.2796 57.4858 10.9756C58.1938 11.6596 58.5478 12.6436 58.5478 13.9276V17.4196C58.5478 17.6716 58.5898 17.8456 58.6738 17.9416C58.7698 18.0376 58.9078 18.0856 59.0878 18.0856H59.3938V19.7596C59.3218 19.7836 59.2018 19.8016 59.0338 19.8136C58.8778 19.8256 58.7158 19.8316 58.5478 19.8316C58.1518 19.8316 57.7978 19.7716 57.4858 19.6516C57.1738 19.5196 56.9338 19.2976 56.7658 18.9856C56.5978 18.6616 56.5138 18.2236 56.5138 17.6716L56.7118 17.8156C56.6158 18.2356 56.4058 18.6136 56.0818 18.9496C55.7698 19.2736 55.3738 19.5256 54.8938 19.7056C54.4138 19.8856 53.8738 19.9756 53.2738 19.9756ZM53.7418 18.3016C54.2578 18.3016 54.7018 18.1996 55.0738 17.9956C55.4458 17.7916 55.7338 17.5096 55.9378 17.1496C56.1418 16.7896 56.2438 16.3636 56.2438 15.8716V15.3316L53.7598 15.8356C53.2438 15.9436 52.8718 16.1056 52.6438 16.3216C52.4278 16.5256 52.3198 16.7956 52.3198 17.1316C52.3198 17.5036 52.4398 17.7916 52.6798 17.9956C52.9318 18.1996 53.2858 18.3016 53.7418 18.3016Z" fill="#EEEEEE"/>
<path d="M40.6338 19.76V6.97998H42.9378V12.344H42.6498C42.7458 11.792 42.9378 11.342 43.2258 10.994C43.5138 10.634 43.8678 10.37 44.2878 10.202C44.7078 10.022 45.1698 9.93198 45.6738 9.93198C46.3818 9.93198 46.9758 10.088 47.4558 10.4C47.9478 10.7 48.3138 11.126 48.5538 11.678C48.8058 12.23 48.9318 12.866 48.9318 13.586V19.76H46.6278V14.144C46.6278 13.364 46.4958 12.782 46.2318 12.398C45.9678 12.002 45.5538 11.804 44.9898 11.804C44.3658 11.804 43.8678 12.008 43.4958 12.416C43.1238 12.824 42.9378 13.418 42.9378 14.198V19.76H40.6338Z" fill="#EEEEEE"/>
<path d="M35.464 19.9756C34.516 19.9756 33.718 19.8376 33.07 19.5616C32.434 19.2856 31.942 18.9016 31.594 18.4096C31.246 17.9176 31.048 17.3596 31 16.7356L33.358 16.6276C33.442 17.1316 33.652 17.5216 33.988 17.7976C34.324 18.0736 34.822 18.2116 35.482 18.2116C36.022 18.2116 36.442 18.1276 36.742 17.9596C37.054 17.7796 37.21 17.5036 37.21 17.1316C37.21 16.9156 37.156 16.7356 37.048 16.5916C36.94 16.4476 36.736 16.3216 36.436 16.2136C36.136 16.1056 35.692 15.9976 35.104 15.8896C34.12 15.7216 33.346 15.5176 32.782 15.2776C32.218 15.0256 31.816 14.7136 31.576 14.3416C31.348 13.9696 31.234 13.5076 31.234 12.9556C31.234 12.0556 31.576 11.3296 32.26 10.7776C32.956 10.2136 33.97 9.93164 35.302 9.93164C36.166 9.93164 36.892 10.0756 37.48 10.3636C38.068 10.6396 38.524 11.0236 38.848 11.5156C39.184 11.9956 39.394 12.5476 39.478 13.1716L37.156 13.2796C37.096 12.9556 36.988 12.6736 36.832 12.4336C36.676 12.1936 36.466 12.0136 36.202 11.8936C35.938 11.7616 35.626 11.6956 35.266 11.6956C34.726 11.6956 34.318 11.8036 34.042 12.0196C33.766 12.2356 33.628 12.5236 33.628 12.8836C33.628 13.1356 33.688 13.3456 33.808 13.5136C33.94 13.6816 34.15 13.8196 34.438 13.9276C34.726 14.0236 35.11 14.1136 35.59 14.1976C36.598 14.3536 37.39 14.5576 37.966 14.8096C38.554 15.0496 38.968 15.3616 39.208 15.7456C39.46 16.1176 39.586 16.5676 39.586 17.0956C39.586 17.7076 39.412 18.2296 39.064 18.6616C38.728 19.0936 38.248 19.4236 37.624 19.6516C37.012 19.8676 36.292 19.9756 35.464 19.9756Z" fill="#EEEEEE"/>
<defs>
<clipPath id="clip0_9073_4003">
<rect width="23" height="23" fill="white" transform="translate(0 2.5)"/>
</clipPath>
</defs>
</svg>
