<svg width="103" height="24" viewBox="0 0 103 24" fill="none" xmlns="http://www.w3.org/2000/svg">
<path d="M12 0C12.3368 0 12.6703 0.0138134 13 0.0410156V23.958C12.6702 23.9852 12.3368 24 12 24C5.37258 24 0 18.6274 0 12C0 5.37258 5.37258 0 12 0ZM13.7998 0.134766C14.1727 0.190848 14.5396 0.264931 14.9004 0.354492V23.6445C14.5396 23.7341 14.1727 23.8082 13.7998 23.8643V0.134766ZM15.7002 0.583008C16.0753 0.704493 16.4419 0.844566 16.7998 1.00098V22.998C16.4419 23.1545 16.0753 23.2945 15.7002 23.416V0.583008ZM17.5996 1.38672C17.9787 1.58713 18.3466 1.80549 18.7002 2.04395V21.9551C18.3465 22.1936 17.9787 22.4119 17.5996 22.6123V1.38672ZM19.5 2.63574C19.8868 2.94593 20.2542 3.27883 20.5996 3.63379V20.3652C20.2542 20.7202 19.8868 21.0531 19.5 21.3633V2.63574ZM21.3994 4.54395C21.8093 5.05995 22.1784 5.60948 22.5 6.18945V17.8096C22.1784 18.3896 21.8093 18.939 21.3994 19.4551V4.54395ZM23.2998 7.95703C23.7519 9.22046 24 10.5811 24 12C24 13.4185 23.7517 14.7788 23.2998 16.042V7.95703Z" fill="#F76B15"/>
<path d="M100.138 19.1888V4.81128H102.325V19.1888H100.138Z" fill="#202020"/>
<path d="M91.2687 19.5128C90.1347 19.5128 89.1424 19.2968 88.2919 18.8648C87.4549 18.4193 86.8069 17.7915 86.3479 16.9815C85.9024 16.1715 85.6797 15.213 85.6797 14.106V4.79102H87.8667V14.106C87.8667 15.1995 88.1637 16.0433 88.7577 16.6373C89.3517 17.2178 90.1887 17.508 91.2687 17.508C92.3487 17.508 93.1857 17.2178 93.7797 16.6373C94.3737 16.0433 94.6707 15.1995 94.6707 14.106V4.79102H96.8577V14.106C96.8577 15.213 96.6282 16.1715 96.1692 16.9815C95.7237 17.7915 95.0824 18.4193 94.2454 18.8648C93.4084 19.2968 92.4162 19.5128 91.2687 19.5128Z" fill="#202020"/>
<path d="M77.9941 19.1888V8.41577H79.9584L80.0394 11.271L79.8571 11.2103C80.0056 10.2383 80.3026 9.52952 80.7481 9.08402C81.2071 8.63852 81.8214 8.41577 82.5909 8.41577H83.6236V10.3395H82.5909C82.0509 10.3395 81.5986 10.4273 81.2341 10.6028C80.8696 10.7783 80.5929 11.0483 80.4039 11.4128C80.2284 11.7773 80.1406 12.2498 80.1406 12.8303V19.1888H77.9941Z" fill="#202020"/>
<path d="M69.8232 19.4316C68.7027 19.4316 67.8049 19.1751 67.1299 18.6621C66.4684 18.1491 66.1377 17.4269 66.1377 16.4954C66.1377 15.5639 66.4144 14.8416 66.9679 14.3286C67.5349 13.8021 68.4057 13.4241 69.5802 13.1946L73.2859 12.4859C73.2859 11.6489 73.0902 11.0279 72.6987 10.6229C72.3072 10.2044 71.7267 9.99511 70.9572 9.99511C70.2687 9.99511 69.7287 10.1504 69.3372 10.4609C68.9457 10.7579 68.6757 11.2034 68.5272 11.7974L66.3199 11.6556C66.5224 10.5756 67.0219 9.72511 67.8184 9.10411C68.6284 8.48311 69.6747 8.17261 70.9572 8.17261C72.4152 8.17261 73.5222 8.56411 74.2782 9.34711C75.0477 10.1166 75.4324 11.2034 75.4324 12.6074V16.7991C75.4324 17.0556 75.4729 17.2379 75.5539 17.3459C75.6484 17.4404 75.7969 17.4876 75.9994 17.4876H76.3842V19.1886C76.3167 19.2021 76.2087 19.2156 76.0602 19.2291C75.9117 19.2426 75.7564 19.2494 75.5944 19.2494C75.1354 19.2494 74.7372 19.1751 74.3997 19.0266C74.0757 18.8781 73.8327 18.6351 73.6707 18.2976C73.5087 17.9466 73.4277 17.4809 73.4277 16.9004L73.6504 17.0016C73.5424 17.4741 73.3062 17.8926 72.9417 18.2571C72.5907 18.6216 72.1384 18.9119 71.5849 19.1279C71.0449 19.3304 70.4577 19.4316 69.8232 19.4316ZM70.1674 17.7306C70.8154 17.7306 71.3689 17.6091 71.8279 17.3661C72.2869 17.1096 72.6447 16.7586 72.9012 16.3131C73.1577 15.8676 73.2859 15.3614 73.2859 14.7944V14.1059L70.1269 14.7134C69.4789 14.8349 69.0199 15.0306 68.7499 15.3006C68.4934 15.5571 68.3652 15.8879 68.3652 16.2929C68.3652 16.7519 68.5204 17.1096 68.8309 17.3661C69.1549 17.6091 69.6004 17.7306 70.1674 17.7306Z" fill="#202020"/>
<path d="M63.6615 19.1888C62.9595 19.1888 62.3925 19.0065 61.9605 18.642C61.5285 18.2775 61.3125 17.697 61.3125 16.9005V4.81128H63.459V16.698C63.459 16.941 63.5198 17.1233 63.6413 17.2448C63.7763 17.3663 63.9652 17.427 64.2083 17.427H65.0588V19.1888H63.6615Z" fill="#202020"/>
<path d="M54.144 19.4316C53.118 19.4316 52.2203 19.2021 51.4508 18.7431C50.6813 18.2841 50.0873 17.6294 49.6688 16.7789C49.2503 15.9284 49.041 14.9361 49.041 13.8021C49.041 12.6546 49.2503 11.6624 49.6688 10.8254C50.0873 9.98836 50.6813 9.34036 51.4508 8.88136C52.2203 8.40886 53.118 8.17261 54.144 8.17261C55.17 8.17261 56.0678 8.40886 56.8373 8.88136C57.6068 9.34036 58.2008 9.98836 58.6193 10.8254C59.0378 11.6624 59.247 12.6546 59.247 13.8021C59.247 14.9361 59.0378 15.9284 58.6193 16.7789C58.2008 17.6294 57.6068 18.2841 56.8373 18.7431C56.0678 19.2021 55.17 19.4316 54.144 19.4316ZM54.144 17.5686C55.062 17.5686 55.7708 17.2379 56.2703 16.5764C56.7698 15.9014 57.0195 14.9766 57.0195 13.8021C57.0195 12.6276 56.7698 11.7096 56.2703 11.0481C55.7708 10.3731 55.062 10.0356 54.144 10.0356C53.2395 10.0356 52.5308 10.3731 52.0178 11.0481C51.5183 11.7096 51.2685 12.6276 51.2685 13.8021C51.2685 14.9766 51.5183 15.9014 52.0178 16.5764C52.5308 17.2379 53.2395 17.5686 54.144 17.5686Z" fill="#202020"/>
<path d="M41.832 19.5128C40.6845 19.5128 39.6855 19.3036 38.835 18.8851C37.998 18.4666 37.3365 17.8861 36.8505 17.1436C36.3645 16.4011 36.081 15.5371 36 14.5516L38.2478 14.4098C38.3423 15.0848 38.538 15.6586 38.835 16.1311C39.132 16.5901 39.5303 16.9411 40.0298 17.1841C40.5428 17.4136 41.157 17.5283 41.8725 17.5283C42.4935 17.5283 43.02 17.4541 43.452 17.3056C43.8975 17.1436 44.235 16.9073 44.4645 16.5968C44.694 16.2863 44.8088 15.9083 44.8088 15.4628C44.8088 15.0578 44.7075 14.7001 44.505 14.3896C44.316 14.0656 43.9448 13.7753 43.3913 13.5188C42.8513 13.2488 42.0548 12.9856 41.0018 12.7291C39.8543 12.4456 38.9363 12.1351 38.2478 11.7976C37.5593 11.4601 37.0598 11.0416 36.7493 10.5421C36.4523 10.0291 36.3038 9.4013 36.3038 8.6588C36.3038 7.8353 36.4995 7.11305 36.891 6.49205C37.296 5.85755 37.8698 5.3648 38.6123 5.0138C39.3548 4.6628 40.2457 4.4873 41.2853 4.4873C42.3788 4.4873 43.3103 4.6898 44.0798 5.0948C44.8628 5.4998 45.477 6.05331 45.9225 6.7553C46.3815 7.4573 46.665 8.26055 46.773 9.16505L44.5253 9.28655C44.4578 8.73305 44.289 8.24705 44.019 7.82855C43.749 7.39655 43.3845 7.0658 42.9255 6.8363C42.4665 6.5933 41.9063 6.4718 41.2448 6.4718C40.4078 6.4718 39.7463 6.66755 39.2603 7.05905C38.7878 7.43705 38.5515 7.9433 38.5515 8.5778C38.5515 8.9828 38.646 9.32706 38.835 9.61056C39.0375 9.88056 39.3885 10.1168 39.888 10.3193C40.401 10.5218 41.1232 10.7378 42.0547 10.9673C43.2968 11.2508 44.2823 11.6018 45.0113 12.0203C45.7538 12.4253 46.2803 12.9046 46.5908 13.4581C46.9013 14.0116 47.0565 14.6393 47.0565 15.3413C47.0565 16.1918 46.8338 16.9343 46.3883 17.5688C45.9563 18.1898 45.3488 18.6691 44.5658 19.0066C43.7828 19.3441 42.8715 19.5128 41.832 19.5128Z" fill="#202020"/>
</svg>
