<svg width="127" height="16" viewBox="0 0 127 16" fill="none" xmlns="http://www.w3.org/2000/svg">
<g clip-path="url(#clip0_9073_4018)">
<path d="M13.0673 0C9.58204 0 7.40478 1.74552 6.53252 5.23657C7.83978 3.49181 9.36378 2.83657 11.106 3.27314C12.1 3.52152 12.811 4.24381 13.5966 5.04381C14.878 6.34667 16.3609 7.85448 19.5998 7.85448C23.0843 7.85448 25.2616 6.10895 26.1331 2.61867C24.8266 4.36343 23.3018 5.01867 21.5603 4.58133C20.5656 4.33295 19.8546 3.61067 19.069 2.81067C17.7876 1.50857 16.3047 0 13.0673 0ZM6.53252 7.85448C3.04952 7.85448 0.870748 9.6 0 13.091C1.3065 11.3455 2.83126 10.691 4.57276 11.1276C5.56747 11.376 6.27851 12.0983 7.06409 12.8983C8.3455 14.2011 9.82843 15.709 13.0673 15.709C16.5518 15.709 18.7291 13.9642 19.5998 10.4731C18.2933 12.2179 16.7693 12.8731 15.0271 12.4366C14.0331 12.1874 13.3221 11.4644 12.5357 10.6651C11.2551 9.36229 9.77139 7.85448 6.53252 7.85448Z" fill="#EEEEEE"/>
<path d="M39.2001 6.6193H36.9187V11.0406C36.9187 12.2201 37.6913 12.2018 39.2001 12.1279V13.9153C36.1468 14.2833 34.9331 13.4361 34.9331 11.0406V6.6193H33.2402V4.70234H34.9323V2.22844L36.9187 1.63872V4.70234H39.1986V6.6193H39.2001ZM47.8924 4.70234H49.8772V13.9153H47.8924V12.5888C47.1927 13.5641 46.1083 14.1545 44.6733 14.1545C42.1728 14.1545 40.0944 12.0364 40.0944 9.30882C40.0944 6.56368 42.1728 4.4631 44.6733 4.4631C46.1075 4.4631 47.1927 5.05282 47.8924 6.0113V4.70234ZM44.9866 12.2566C46.6414 12.2566 47.8916 11.0223 47.8916 9.30806C47.8916 7.5953 46.6414 6.36101 44.9866 6.36101C43.331 6.36101 42.0808 7.5953 42.0808 9.30882C42.0808 11.0223 43.331 12.2574 44.9858 12.2574L44.9866 12.2566ZM53.1876 3.32177C52.8522 3.31801 52.5316 3.1828 52.2945 2.94511C52.0574 2.70743 51.9227 2.38617 51.9191 2.05015C51.9206 1.71263 52.0552 1.38882 52.2925 1.15111C52.4099 1.03311 52.5494 0.939492 52.703 0.875614C52.8566 0.811735 53.0213 0.778854 53.1876 0.778854C53.3539 0.778854 53.5186 0.811735 53.6722 0.875614C53.8258 0.939492 53.9653 1.03311 54.0827 1.15111C54.32 1.38882 54.4553 1.71263 54.4561 2.05015C54.4561 2.73206 53.8857 3.32177 53.1876 3.32177ZM52.1944 13.9161V4.70234H54.1808V13.9153L52.1944 13.9161ZM56.4797 13.9161V0.463867H58.4653V13.9145H56.4805L56.4797 13.9161ZM71.3585 4.70234H73.4551L70.5676 13.9153H68.6185L66.7051 7.70577L64.7743 13.9153H62.8252L59.9376 4.70234H62.0343L63.8183 11.0589L65.75 4.70234H67.6435L69.5554 11.0589L71.3585 4.70234ZM75.9183 3.32177C75.2187 3.32177 74.6491 2.73206 74.6491 2.05015C74.6506 1.71263 74.786 1.38882 75.0232 1.15111C75.1406 1.03302 75.2801 0.93932 75.4337 0.875384C75.5873 0.811449 75.752 0.778536 75.9183 0.778536C76.0847 0.778536 76.2493 0.811449 76.403 0.875384C76.5566 0.93932 76.696 1.03302 76.8134 1.15111C77.0514 1.38882 77.186 1.71263 77.1876 2.05015C77.1876 2.73206 76.6172 3.32177 75.9183 3.32177ZM74.9251 13.9161V4.70234H76.9115V13.9153L74.9251 13.9161ZM84.0478 4.4631C86.1072 4.4631 87.5788 5.86349 87.5788 8.25891V13.9145H85.5924V8.46082C85.5924 7.06044 84.7832 6.32444 83.533 6.32444C82.2273 6.32444 81.1976 7.09777 81.1976 8.97739V13.9145H79.2112V4.70387H81.1976V5.88177C81.8044 4.92406 82.7969 4.4631 84.0478 4.4631ZM96.9942 1.01777H98.9806V13.9145H96.9942V12.5881C96.2961 13.5648 95.2109 14.1538 93.7767 14.1538C91.2754 14.1538 89.197 12.0357 89.197 9.30806C89.197 6.56291 91.2754 4.46234 93.7767 4.46234C95.2109 4.46234 96.2961 5.05206 96.9942 6.01053V1.01777ZM94.0884 12.2566C95.744 12.2566 96.9942 11.0223 96.9942 9.30806C96.9942 7.5953 95.744 6.36101 94.0884 6.36101C92.4336 6.36101 91.1834 7.5953 91.1834 9.30882C91.1834 11.0223 92.4336 12.2566 94.0884 12.2566ZM105.638 14.1538C102.861 14.1538 100.783 12.0357 100.783 9.30806C100.783 6.56368 102.861 4.4631 105.638 4.4631C107.44 4.4631 109.004 5.40253 109.739 6.84025L108.029 7.8353C107.624 6.96901 106.723 6.41587 105.62 6.41587C104.001 6.41587 102.769 7.65015 102.769 9.30882C102.769 10.9667 104.001 12.2018 105.62 12.2018C106.723 12.2018 107.624 11.6303 108.065 10.7823L109.776 11.7591C109.004 13.2143 107.44 14.1538 105.638 14.1538ZM113.049 7.24482C113.049 8.92177 117.996 7.90768 117.996 11.3172C117.996 13.1602 116.396 14.1545 114.41 14.1545C112.571 14.1545 111.247 13.3248 110.659 11.9983L112.369 11.0041C112.663 11.833 113.399 12.3298 114.41 12.3298C115.293 12.3298 115.974 12.0357 115.974 11.2982C115.974 9.6593 111.027 10.5804 111.027 7.28291C111.027 5.55034 112.516 4.4631 114.392 4.4631C115.9 4.4631 117.151 5.16406 117.794 6.3793L116.121 7.31872C115.789 6.60025 115.145 6.26882 114.392 6.26882C113.675 6.26882 113.049 6.5812 113.049 7.24482ZM121.527 7.24482C121.527 8.92177 126.474 7.90768 126.474 11.3172C126.474 13.1602 124.874 14.1545 122.888 14.1545C121.049 14.1545 119.726 13.3248 119.136 11.9983L120.847 11.0041C121.141 11.833 121.876 12.3298 122.888 12.3298C123.771 12.3298 124.451 12.0357 124.451 11.2982C124.451 9.6593 119.504 10.5804 119.504 7.28291C119.504 5.55034 120.994 4.4631 122.87 4.4631C124.378 4.4631 125.629 5.16406 126.272 6.3793L124.599 7.31872C124.268 6.60025 123.624 6.26882 122.87 6.26882C122.152 6.26882 121.527 6.5812 121.527 7.24482Z" fill="#EEEEEE"/>
</g>
<defs>
<clipPath id="clip0_9073_4018">
<rect width="127" height="16" fill="white"/>
</clipPath>
</defs>
</svg>
